<?xml version="1.0" encoding="UTF-8" standalone="no"?>
<svg xmlns="http://www.w3.org/2000/svg" xmlns:xlink="http://www.w3.org/1999/xlink" viewBox="0 0 332 82">
 <defs>
  <style>.cls-1 {
        clip-path: url(#clip-logo_bo_nega);
      }
      .cls-2 {
        fill: #fff;
      }
      .cls-3 {
        fill: #a0aacd;
      }</style>
  <clipPath id="clip-logo_bo_nega">
   <rect width="332" height="82"/>
  </clipPath>
 </defs>
 <g id="logo_bo_nega" class="cls-1">
  <g id="グループ化_300" data-name="グループ化 300">
   <g id="グループ化_297" data-name="グループ化 297">
    <path id="パス_182" d="m54.67 13.67a13.627 13.627 0 0 1 -4 9.66l-17.68 17.67 17.67 17.67a13.642 13.642 0 0 1 0.13 19.17l-0.28 0.28a13.57 13.57 0 0 1 -9.51 3.88h-27.33a13.67 13.67 0 0 1 -13.67 -13.67v-54.66a13.67 13.67 0 0 1 13.67 -13.67h27.33a13.67 13.67 0 0 1 13.67 13.67z" class="cls-2" data-name="パス 182"/>
    <circle id="楕円形_8" transform="translate(54.66 27.33)" cx="13.67" data-name="楕円形 8" cy="13.67" r="13.67" class="cls-2"/>
    <path id="パス_183" d="m50.66 58.67a13.642 13.642 0 0 1 0.13 19.17l-0.28 0.28a13.63 13.63 0 0 1 -19.17 -0.12 0.01 0.01 0 0 1 -0.01 -0.01 22.352 22.352 0 0 1 -4.42 -6.35v-0.01a25.564 25.564 0 0 1 -2.35 -11.52 28.1 28.1 0 0 1 8.43 -19.11z" class="cls-3" data-name="パス 183"/>
   </g>
   <g id="グループ化_299" data-name="グループ化 299">
    <path id="パス_184" d="m272.92 38.9l-0.62-0.39a9.235 9.235 0 0 0 -5.24 -1.43 9.336 9.336 0 0 0 -5.24 1.43l-0.76 0.49a8.971 8.971 0 0 0 -3.78 7.25v2.86a8.954 8.954 0 0 0 3.63 7.11 10.06 10.06 0 0 0 12.29 0.01 8.969 8.969 0 0 0 3.64 -7.12v-2.87a8.926 8.926 0 0 0 -3.92 -7.34zm1.51 9.9a7.431 7.431 0 0 1 -2.76 5.71 7.626 7.626 0 0 1 -9.23 -0.01 8.124 8.124 0 0 1 -2.74 -6.07v-1.85a7.381 7.381 0 0 1 3.43 -6.19l0.78-0.46v0.05a8.072 8.072 0 0 1 6.3 0v-0.04l0.78 0.45a7.368 7.368 0 0 1 3.43 6.19z" class="cls-2" data-name="パス 184"/>
    <path id="パス_185" d="m107.12 22.78h7.79a15.2 15.2 0 0 1 5.24 0.78 9.272 9.272 0 0 1 3.38 2.06 7.617 7.617 0 0 1 1.84 2.91 10.318 10.318 0 0 1 0.56 3.31 7.3 7.3 0 0 1 -0.49 2.69 6.881 6.881 0 0 1 -1.4 2.25 7.9 7.9 0 0 1 -2.16 1.64 8.087 8.087 0 0 1 -2.77 0.86l0.1 0.1a6.042 6.042 0 0 1 1.62 0.29 8.839 8.839 0 0 1 2.67 1.3 9.394 9.394 0 0 1 2.5 2.65 7.848 7.848 0 0 1 1.1 4.34 9.455 9.455 0 0 1 -0.88 4.21 7.844 7.844 0 0 1 -2.3 2.93 10.221 10.221 0 0 1 -3.68 1.92 20.54 20.54 0 0 1 -5.33 0.74h-7.79v-34.98zm7.84 15.24q4.5 0 6.73-1.87a6.142 6.142 0 0 0 2.23 -4.93 5.522 5.522 0 0 0 -2.72 -5.02 8.619 8.619 0 0 0 -2.84 -1.09 16.817 16.817 0 0 0 -3.39 -0.32h-5.35v13.24h5.34zm-0.06 17.67a12.288 12.288 0 0 0 7.37 -1.95 6.793 6.793 0 0 0 2.67 -5.86 6.534 6.534 0 0 0 -0.93 -3.64 6.769 6.769 0 0 0 -2.37 -2.24 9.9 9.9 0 0 0 -3.23 -1.13 20.132 20.132 0 0 0 -3.5 -0.31h-5.29v15.15h5.28z" class="cls-2" data-name="パス 185"/>
    <rect id="長方形_26" data-name="長方形 26" transform="translate(147.75 22.67)" height="34.84" width="2.51" class="cls-2"/>
    <rect id="長方形_27" data-name="長方形 27" transform="translate(327.83 22.67)" height="34.84" width="2.51" class="cls-2"/>
    <path id="パス_186" d="m190.26 45.46c0 3.67-0.38 6.35-1.11 7.74a6.111 6.111 0 0 1 -5.61 2.97c-3.13 0-4.73-0.78-5.89-2.87-1.17-2.12-1.29-5.47-1.29-6.81v-8.9h-2.57v7.23c0 3.4 0.21 6.93 1.75 9.65 1.93 3.42 5.96 3.79 7.6 3.79a8.066 8.066 0 0 0 4.74 -1.24 5.033 5.033 0 0 0 1.41 -1.38l0.97-1.69v3.85h2.32v-20.2h-2.32v7.86z" class="cls-2" data-name="パス 186"/>
    <path id="パス_187" d="m231.39 39.2a8.781 8.781 0 0 0 -6.11 -2.22c-1.97 0-4.83 0.66-6.45 2.51a10.426 10.426 0 0 0 -2.85 7.84v1.46a12.479 12.479 0 0 0 1.01 4.27 8.983 8.983 0 0 0 8.65 5.26c3.55 0 6.24-1.41 7.81-4.07l-1.8-1.3a6.431 6.431 0 0 1 -5.84 3.11c-1.54 0-4.29-0.57-5.43-1.64a6.316 6.316 0 0 1 -2.19 -5.25l-0.01-0.53h0.53c4.86-0.01 13.63-0.03 15.74-0.04 0.02-0.43 0.04-1.19 0-2.33-0.12-3.24-1.08-5.49-3.06-7.07zm0.44 7.55h-13.78v-0.52a8.2 8.2 0 0 1 2.25 -5.52 7.968 7.968 0 0 1 5.03 -1.83 7.036 7.036 0 0 1 4.43 1.32c2.17 1.47 2.46 3.68 2.57 6l0.03 0.54h-0.53z" class="cls-2" data-name="パス 187"/>
    <path id="パス_188" d="m300.14 29.31a1.86 1.86 0 1 0 1.86 1.86 1.863 1.863 0 0 0 -1.86 -1.86z" class="cls-2" data-name="パス 188"/>
    <rect id="長方形_28" data-name="長方形 28" transform="translate(298.74 38.12)" height="19.39" width="2.79" class="cls-2"/>
   </g>
  </g>
 </g>
</svg>
