<svg xmlns="http://www.w3.org/2000/svg" xmlns:xlink="http://www.w3.org/1999/xlink" viewBox="0 0 115 20">
  <defs>
    <style>
      .cls-1 {
        clip-path: url(#clip-logo_lm);
      }

      .cls-2 {
        fill: #fff;
      }
    </style>
    <clipPath id="clip-logo_lm">
      <rect width="115" height="20"/>
    </clipPath>
  </defs>
  <g id="logo_lm" class="cls-1">
    <path id="logo" class="cls-2" d="M-1922.353,1006V988.353h-3.53V1006h-2.352V988.353h-3.53v11.765h-2.353V986H-1920v20Zm-17.647,0V986h2.353v17.647h5.882V1006Zm107.438-5.675V991.64h3.01c2.664,0,3.772,1.246,3.772,4.291.035,3.184-1.211,4.395-3.737,4.395Zm1.211-1.073h1.8c1.73,0,2.526-.657,2.526-3.287,0-2.491-.726-3.183-2.526-3.183h-1.8Zm-7.578,1.073-4.152-5.986-.519-.8h-.035v6.748h-1.073V991.64h1.073l4.463,6.574h.035l-.035-.934v-5.64h1.073v8.685Zm-12.6,0V991.64h1.246v8.685Zm-6.678,0v-5.744l.035-.934h-.035l-.346.865-2.388,5.813h-.865l-2.353-5.779-.346-.865h-.035v6.644h-1.073V991.64h1.384l2.526,6.125.346.865h.035l.311-.865,2.526-6.125h1.349v8.685Zm-18.374,0V991.64h2.907c2.145,0,3.079.831,3.079,2.734,0,1.8-.9,2.7-3.079,2.7h-1.73v3.253Zm1.177-4.256h1.73c1.246,0,1.834-.381,1.834-1.73.035-1.211-.553-1.661-1.834-1.661h-1.73Zm-7.37,4.256-.727-2.076-.311-1-1.28-3.806-.277-.9h-.035l-.311.9-1.28,3.806-.346,1-.727,2.076h-1.28l3.252-8.685h1.419l3.252,8.685Zm-16.747,0V991.64h5.4l.035,1.073h-4.221v2.63h3.633v1h-3.633v2.941h4.427l-.033,1.038Zm-10.173,0V991.64h1.211v7.578h4.083l-.034,1.107Zm15.812-1.038v0Z" transform="translate(1940 -986.3)"/>
  </g>
</svg>
