<svg xmlns="http://www.w3.org/2000/svg" xmlns:xlink="http://www.w3.org/1999/xlink" viewBox="0 0 64 64">
  <defs>
    <style>
      .cls-1, .cls-3 {
        fill: #666;
      }

      .cls-2 {
        clip-path: url(#clip-path);
      }

      .cls-3 {
        fill-rule: evenodd;
      }
    </style>
    <clipPath id="clip-path">
      <rect id="長方形_15" data-name="長方形 15" class="cls-1" width="64" height="64"/>
    </clipPath>
  </defs>
  <g id="icon_twitter_w" class="cls-2">
    <path id="twitter_logo" class="cls-3" d="M55.229,32.239a13.655,13.655,0,0,1-3.613.98,6.356,6.356,0,0,0,2.818-3.491,12.859,12.859,0,0,1-4.042,1.531,6.412,6.412,0,0,0-11.023,4.286,5.221,5.221,0,0,0,.184,1.408A18.077,18.077,0,0,1,26.446,30.4a6.136,6.136,0,0,0-.857,3.124A6.27,6.27,0,0,0,28.4,38.732a5.8,5.8,0,0,1-2.878-.8V38a5.736,5.736,0,0,0,.429,2.265,6.358,6.358,0,0,0,4.653,3.86,7.711,7.711,0,0,1-1.654.244,6.783,6.783,0,0,1-1.164-.123,6.351,6.351,0,0,0,5.942,4.35,13.085,13.085,0,0,1-7.9,2.695c-.551,0-.98-.061-1.531-.061a18.286,18.286,0,0,0,9.738,2.818A17.651,17.651,0,0,0,51.677,40.02a16.052,16.052,0,0,0,.429-3.8v-.8a14.024,14.024,0,0,0,3.124-3.185Z" transform="translate(-7.458 -9.09)"/>
  </g>
</svg>
