<?xml version="1.0" encoding="UTF-8" standalone="no"?>
<svg xmlns="http://www.w3.org/2000/svg" xmlns:xlink="http://www.w3.org/1999/xlink" viewBox="0 0 286 160">
 <defs>
  <style>.cls-1 {
        clip-path: url(#clip-logo_bo_nega_v);
      }
      .cls-2 {
        fill: #fff;
      }
      .cls-3 {
        fill: #a0aacd;
      }</style>
  <clipPath id="clip-logo_bo_nega_v">
   <rect width="286" height="160"/>
  </clipPath>
 </defs>
 <g id="logo_bo_nega_v" class="cls-1">
  <g id="グループ化_351" transform="translate(1)" data-name="グループ化 351">
   <g id="グループ化_338" data-name="グループ化 338">
    <g id="グループ化_335" data-name="グループ化 335">
     <path id="パス_220" d="m161.97 14.81a14.76 14.76 0 0 1 -4.34 10.47l-19.15 19.15 19.15 19.15a14.789 14.789 0 0 1 0.15 20.78l-0.31 0.31a14.757 14.757 0 0 1 -10.31 4.19h-29.62a14.809 14.809 0 0 1 -14.81 -14.81v-59.24a14.809 14.809 0 0 1 14.81 -14.81h29.62a14.809 14.809 0 0 1 14.81 14.81z" class="cls-2" data-name="パス 220"/>
    </g>
    <g id="グループ化_336" data-name="グループ化 336">
     <circle id="楕円形_13" transform="translate(161.97 29.62)" cx="14.81" data-name="楕円形 13" cy="14.81" r="14.81" class="cls-2"/>
    </g>
    <g id="グループ化_337" data-name="グループ化 337">
     <path id="パス_221" d="m157.63 63.57a14.789 14.789 0 0 1 0.15 20.78l-0.31 0.31a14.789 14.789 0 0 1 -20.78 -0.15l-0.01-0.01a24.262 24.262 0 0 1 -4.78 -6.88v-0.01a27.641 27.641 0 0 1 -2.54 -12.49 30.419 30.419 0 0 1 9.14 -20.71z" class="cls-3" data-name="パス 221"/>
    </g>
   </g>
   <g id="グループ化_350" data-name="グループ化 350">
    <g id="グループ化_340" data-name="グループ化 340">
     <g id="グループ化_339" data-name="グループ化 339">
      <path id="パス_222" d="m212.71 134.34v0.02a13.262 13.262 0 0 0 -13.58 0v-0.02a11.789 11.789 0 0 0 -5.89 10.09v3.53a11.668 11.668 0 0 0 4.72 9.26 13.045 13.045 0 0 0 15.92 0 11.668 11.668 0 0 0 4.72 -9.26v-3.53a11.832 11.832 0 0 0 -5.89 -10.09zm1.63 13.21a8.49 8.49 0 0 1 -3.14 6.52 8.751 8.751 0 0 1 -10.58 0c-1.91-1.43-3.13-4.52-3.14-6.97v-2.28a8.484 8.484 0 0 1 3.91 -7.07v0.01a8.92 8.92 0 0 1 9.04 0v-0.01a8.47 8.47 0 0 1 3.91 7.07v2.73z" class="cls-2" data-name="パス 222"/>
     </g>
    </g>
    <path id="パス_223" d="m25.45 141.24a12.479 12.479 0 0 0 -6.62 -5.1 8.232 8.232 0 0 0 1.09 -0.49 10.8 10.8 0 0 0 2.94 -2.19 9.479 9.479 0 0 0 1.93 -3.04 9.816 9.816 0 0 0 0.67 -3.62 13.313 13.313 0 0 0 -0.76 -4.37 10.082 10.082 0 0 0 -2.52 -3.91 12.523 12.523 0 0 0 -4.57 -2.73 20.619 20.619 0 0 0 -6.96 -1.02h-10.65v45.23h10.65a28.081 28.081 0 0 0 7.02 -0.95 13.845 13.845 0 0 0 4.95 -2.52 10.512 10.512 0 0 0 3.15 -3.9 12.384 12.384 0 0 0 1.2 -5.58 10.327 10.327 0 0 0 -1.52 -5.81zm-20.95-22.67h6.22a22.175 22.175 0 0 1 4.23 0.39 10.657 10.657 0 0 1 3.45 1.29 6.81 6.81 0 0 1 2.33 2.29 6.515 6.515 0 0 1 0.86 3.47 6.952 6.952 0 0 1 -2.62 5.69c-1.78 1.47-4.55 2.21-8.23 2.21h-6.24zm15.24 35.21c-2.16 1.55-5.22 2.33-9.09 2.33h-6.15v-17.74h6.15a26.67 26.67 0 0 1 4.39 0.38 12.716 12.716 0 0 1 3.95 1.35 8.127 8.127 0 0 1 2.83 2.61 7.508 7.508 0 0 1 1.09 4.22c-0.02 3.09-1.05 5.33-3.17 6.85z" class="cls-2" data-name="パス 223"/>
    <g id="グループ化_341" data-name="グループ化 341">
     <rect id="長方形_39" data-name="長方形 39" transform="translate(55.68 114.76)" height="44.15" width="4.71" class="cls-2"/>
    </g>
    <g id="グループ化_342" data-name="グループ化 342">
     <rect id="長方形_40" data-name="長方形 40" transform="translate(279.89 114.76)" height="44.15" width="4.71" class="cls-2"/>
    </g>
    <g id="グループ化_344" data-name="グループ化 344">
     <g id="グループ化_343" data-name="グループ化 343">
      <path id="パス_224" d="m88.61 142.65v-9.54h4.44v11.59c0 2.18 0.26 5.8 1.51 8.08 1.33 2.4 3.14 3.21 6.69 3.21a6.928 6.928 0 0 0 6.34 -3.31c0.77-1.48 1.3-4.44 1.3-9.23v-10.33h4.13v26.14h-4.13v-2.97a6.8 6.8 0 0 1 -1.92 1.9 10.515 10.515 0 0 1 -6.21 1.65c-3.29 0-7.7-1.06-9.91-4.99-1.96-3.48-2.24-7.91-2.24-12.2z" class="cls-2" data-name="パス 224"/>
     </g>
    </g>
    <g id="グループ化_346" data-name="グループ化 346">
     <g id="グループ化_345" data-name="グループ化 345">
      <path id="パス_225" d="m161.13 135.25a11.471 11.471 0 0 0 -7.92 -2.87c-2.57 0-6.28 0.85-8.42 3.31-2.19 2.51-3.67 5.05-3.67 10.07v1.79a15.945 15.945 0 0 0 1.3 5.5 11.711 11.711 0 0 0 11.23 6.86c8.02 0 10.26-5.65 10.45-5.83l-3.27-2.36c-0.14 0.15-1.57 4.13-6.98 4.13-1.94 0-5.06-0.73-6.25-1.84-1.63-1.43-2.43-2.93-2.49-6.01 0 0 17.96-0.03 19.82-0.05a0.173 0.173 0 0 0 0.17 -0.16 32 32 0 0 0 0.03 -3.37c-0.1-2.95-0.78-6.6-4-9.17zm-16.17 9.15a9.53 9.53 0 0 1 2.57 -6.33 9.156 9.156 0 0 1 5.76 -2.08 7.973 7.973 0 0 1 5.1 1.52c2.36 1.6 2.74 3.98 2.89 6.89z" class="cls-2" data-name="パス 225"/>
     </g>
    </g>
    <g id="グループ化_349" data-name="グループ化 349">
     <g id="グループ化_347" data-name="グループ化 347">
      <path id="パス_226" d="m251 124.48a2.583 2.583 0 0 1 -3.65 3.65 2.583 2.583 0 0 1 3.65 -3.65z" class="cls-2" data-name="パス 226"/>
     </g>
     <g id="グループ化_348" data-name="グループ化 348">
      <rect id="長方形_41" data-name="長方形 41" transform="translate(246.82 133.78)" height="25.14" width="4.71" class="cls-2"/>
     </g>
    </g>
   </g>
  </g>
 </g>
</svg>
