<svg xmlns="http://www.w3.org/2000/svg" viewBox="0 0 105.185 64">
  <defs>
    <style>
      .cls-1 {
        fill: none;
      }

      .cls-2 {
        fill: #666;
      }
    </style>
  </defs>
  <g id="logo-slack" transform="translate(-558 -2573)">
    <rect id="frame" class="cls-1" width="105" height="64" transform="translate(558 2573)"/>
    <path id="logo-slack-2" data-name="logo-slack" class="cls-2" d="M11.922,30a9.878,9.878,0,0,1-3.655-.628,8.078,8.078,0,0,1-2.888-1.943,13.15,13.15,0,0,1-2.286-3.347,30.267,30.267,0,0,1-1.849-4.84A25.869,25.869,0,0,1,0,12.608a9.542,9.542,0,0,1,1.023-4.88A9.538,9.538,0,0,1,4.537,4.186a25.836,25.836,0,0,1,6.22-2.618,24.919,24.919,0,0,1,7-1.244,9.872,9.872,0,0,1,3.655.628A8.077,8.077,0,0,1,24.3,2.895a13.152,13.152,0,0,1,2.286,3.347,30.252,30.252,0,0,1,1.849,4.84,25.87,25.87,0,0,1,1.239,6.635,9.545,9.545,0,0,1-1.023,4.88,9.535,9.535,0,0,1-3.509,3.541,25.836,25.836,0,0,1-6.22,2.618,24.917,24.917,0,0,1-7,1.244h0Zm-.358-8.385.664,1.993a1.532,1.532,0,0,0,.56.745,1.605,1.605,0,0,0,.863.3.653.653,0,0,0,.094.006,1.614,1.614,0,0,0,.428-.077,1.54,1.54,0,0,0,.973-1.946l-.664-1.993,3.962-1.329.664,1.993a1.532,1.532,0,0,0,.56.745,1.605,1.605,0,0,0,.863.3.653.653,0,0,0,.094.006,1.619,1.619,0,0,0,.429-.078,1.5,1.5,0,0,0,.887-.768,1.557,1.557,0,0,0,.086-1.177l-.664-1.993,1.922-.641a1.5,1.5,0,0,0,.887-.768,1.557,1.557,0,0,0,.086-1.177,1.525,1.525,0,0,0-1.462-1.049,1.567,1.567,0,0,0-.484.076l-1.922.641L19.108,11.6l1.922-.641a1.5,1.5,0,0,0,.887-.768A1.557,1.557,0,0,0,22,9.018a1.525,1.525,0,0,0-1.462-1.049,1.572,1.572,0,0,0-.483.076l-1.922.641-.664-1.993a1.526,1.526,0,0,0-1.462-1.049,1.572,1.572,0,0,0-.483.076,1.5,1.5,0,0,0-.887.768,1.557,1.557,0,0,0-.086,1.177l.664,1.993-3.962,1.329-.664-1.993A1.526,1.526,0,0,0,9.129,7.945a1.572,1.572,0,0,0-.483.076,1.54,1.54,0,0,0-.973,1.945l.664,1.993L6.416,12.6A1.52,1.52,0,0,0,6,15.29a1.6,1.6,0,0,0,.863.3.658.658,0,0,0,.094.006,1.619,1.619,0,0,0,.428-.078l1.922-.641,1.281,3.82-1.922.641a1.5,1.5,0,0,0-.887.768A1.558,1.558,0,0,0,7.7,21.283a1.532,1.532,0,0,0,.56.745,1.6,1.6,0,0,0,.863.3.652.652,0,0,0,.094.006,1.619,1.619,0,0,0,.428-.078l1.921-.64h0Zm24.721,1.044c-.854-.427-.9-.688-.166-2.111.641-1.257.854-1.376,1.779-1a13.081,13.081,0,0,0,4.579,1.139c1.424,0,2.349-.569,2.349-1.424,0-2.7-9.039-1.424-9.039-7.165,0-3.061,2.539-5.1,6.358-5.1a14.5,14.5,0,0,1,5.623,1.233c.925.4,1,.712.261,2.088-.735,1.424-.925,1.495-1.827,1.139a10.186,10.186,0,0,0-3.559-.854c-1.542,0-2.586.546-2.586,1.4,0,2.776,8.873,1.281,8.873,7.212,0,2.989-2.562,4.982-6.406,4.982A15.132,15.132,0,0,1,36.284,22.659Zm20.593-3.487c0-3.179,2.633-5.338,6.571-5.338a10.3,10.3,0,0,1,3.986.735V13.478c0-1.756-1.376-2.8-3.725-2.8A7.352,7.352,0,0,0,60.2,11.746c-.83.474-1.02.427-1.922-.9-.878-1.329-.854-1.59,0-2.135A11.261,11.261,0,0,1,64.113,7c4.508-.024,7.355,2.443,7.355,6.619v9.513a.822.822,0,0,1-.854.854h-2.3a.81.81,0,0,1-.854-.9l.024-1.02a6.546,6.546,0,0,1-4.816,2.111C59.2,24.177,56.877,22.161,56.877,19.172Zm3.867-.048c0,1.139.949,1.9,2.42,1.9a5.05,5.05,0,0,0,4.27-2.277V17.25a8.944,8.944,0,0,0-3.06-.546C62.191,16.7,60.744,17.724,60.744,19.124Zm12.692-3.606c0-5.148,3.606-8.564,9.039-8.564a10.715,10.715,0,0,1,4.769,1.305c.854.5.878.759-.047,2.183-.878,1.352-1.02,1.423-1.946.949a6.476,6.476,0,0,0-2.776-.688,4.57,4.57,0,0,0-4.863,4.816,4.677,4.677,0,0,0,4.863,5.029,6.914,6.914,0,0,0,3.108-.854c.854-.5,1.02-.451,1.922.854.807,1.21.783,1.495.071,2.017a9.777,9.777,0,0,1-5.148,1.589C77.043,24.154,73.436,20.69,73.436,15.518ZM101,23.466l-4.816-6.429-2.159,2.088V23.3a.8.8,0,0,1-.854.688H90.826a.8.8,0,0,1-.854-.688V1.189C89.972.1,90.281,0,91.989,0c1.945,0,2.016.142,2.016,1.186V13.762l6.6-6.334c.736-.688,1.139-.641,2.42.214,1.423.925,1.542,1.186.854,1.85l-4.911,4.792,5.883,7.615c.664.854.4,1.163-1.281,1.779a5.511,5.511,0,0,1-1.6.431C101.561,24.11,101.338,23.9,101,23.466Zm-49.251.522A.8.8,0,0,1,50.9,23.3V1.189C50.9.1,51.207,0,52.915,0c1.945-.024,2.016.119,2.016,1.186V23.3a.8.8,0,0,1-.854.688ZM13.5,17.762h0l-1.281-3.824,3.959-1.326,1.281,3.824L13.5,17.762Z" transform="translate(558 2591)"/>
  </g>
</svg>
