<?xml version="1.0" encoding="UTF-8" standalone="no"?>
<!-- Generator: Adobe Illustrator 23.0.0, SVG Export Plug-In . SVG Version: 6.00 Build 0)  -->
<svg id="logo" style="enable-background:new 0 0 82 82" xmlns="http://www.w3.org/2000/svg" xml:space="preserve" viewBox="0 0 82 82" version="1.1" y="0px" x="0px" xmlns:xlink="http://www.w3.org/1999/xlink">
<style type="text/css">
	.st0{fill:#2D375A;}
	.st1{fill:#5F698C;}
</style>
<path id="パス_182" d="m54.7 13.7c0 3.6-1.4 7.1-4 9.7l-17.7 17.6 17.7 17.7c5.3 5.3 5.3 13.8 0.1 19.2l-0.3 0.3c-2.5 2.4-5.9 3.8-9.5 3.8h-27.3c-7.6 0-13.7-6.1-13.7-13.7v-54.6c0-7.6 6.1-13.7 13.7-13.7h27.3c7.5 0 13.7 6.1 13.7 13.7z" class="st0"/>
<circle id="楕円形_8" cy="41" cx="68.3" r="13.7" class="st0"/>
<path id="パス_183" d="m50.7 58.7c5.3 5.3 5.3 13.8 0.1 19.2l-0.3 0.3c-5.3 5.2-13.9 5.2-19.2-0.1-1.8-1.8-3.3-4-4.4-6.3-1.7-3.6-2.5-7.5-2.4-11.5 0.3-7.2 3.3-14.1 8.4-19.1l17.8 17.5z" class="st1"/>
</svg>
